<svg width="32" height="32" viewBox="0 0 32 32" fill="#fff" xmlns="http://www.w3.org/2000/svg">
<path d="M0 5C0 4.44772 0.447715 4 1 4H4C4.45887 4 4.85885 4.3123 4.97014 4.75746L5.78078 8H29C29.3079 8 29.5987 8.14187 29.7882 8.38459C29.9777 8.6273 30.0448 8.94379 29.9701 9.24254L26.9701 21.2425C26.8589 21.6877 26.4589 22 26 22H8C7.54113 22 7.14115 21.6877 7.02986 21.2425L3.21922 6H1C0.447715 6 0 5.55228 0 5ZM6.28078 10L8.78078 20H25.2192L27.7192 10H6.28078ZM10 26C8.89543 26 8 26.8954 8 28C8 29.1046 8.89543 30 10 30C11.1046 30 12 29.1046 12 28C12 26.8954 11.1046 26 10 26ZM6 28C6 25.7909 7.79086 24 10 24C12.2091 24 14 25.7909 14 28C14 30.2091 12.2091 32 10 32C7.79086 32 6 30.2091 6 28ZM24 26C22.8954 26 22 26.8954 22 28C22 29.1046 22.8954 30 24 30C25.1046 30 26 29.1046 26 28C26 26.8954 25.1046 26 24 26ZM20 28C20 25.7909 21.7909 24 24 24C26.2091 24 28 25.7909 28 28C28 30.2091 26.2091 32 24 32C21.7909 32 20 30.2091 20 28Z" fill="black"/>
</svg>
