<svg width="32" height="32" viewBox="0 0 32 32" fill="none" xmlns="http://www.w3.org/2000/svg">
<path d="M12 2V8H2L2 2H12ZM2 0C0.895431 0 0 0.89543 0 2V8C0 9.10457 0.89543 10 2 10H12C13.1046 10 14 9.10457 14 8V2C14 0.895431 13.1046 0 12 0H2Z" fill="black"/>
<path d="M30 24V30H20V24H30ZM20 22C18.8954 22 18 22.8954 18 24V30C18 31.1046 18.8954 32 20 32H30C31.1046 32 32 31.1046 32 30V24C32 22.8954 31.1046 22 30 22H20Z" fill="black"/>
<path d="M12 16V30H2L2 16H12ZM2 14C0.895431 14 0 14.8954 0 16V30C0 31.1046 0.89543 32 2 32H12C13.1046 32 14 31.1046 14 30V16C14 14.8954 13.1046 14 12 14H2Z" fill="black"/>
<path d="M30 2V16H20V2H30ZM20 0C18.8954 0 18 0.89543 18 2V16C18 17.1046 18.8954 18 20 18H30C31.1046 18 32 17.1046 32 16V2C32 0.895431 31.1046 0 30 0H20Z" fill="black"/>
</svg>
