<svg width="32" height="32" viewBox="0 0 32 32" fill="#EAEAEA" xmlns="http://www.w3.org/2000/svg">
<path d="M17.4142 3.00009C16.6332 2.21905 15.3668 2.21904 14.5858 3.00009L1.29289 16.293C0.902369 16.6835 0.902369 17.3167 1.29289 17.7072C1.68342 18.0977 2.31658 18.0977 2.70711 17.7072L4 16.4143V27.0001C4 28.6569 5.34315 30.0001 7 30.0001H25C26.6569 30.0001 28 28.6569 28 27.0001V16.4143L29.2929 17.7072C29.6834 18.0977 30.3166 18.0977 30.7071 17.7072C31.0976 17.3167 31.0976 16.6835 30.7071 16.293L26 11.5859V5.00009C26 4.44781 25.5523 4.00009 25 4.00009H23C22.4477 4.00009 22 4.44781 22 5.00009V7.58588L17.4142 3.00009ZM26 14.4143V27.0001C26 27.5524 25.5523 28.0001 25 28.0001H7C6.44772 28.0001 6 27.5524 6 27.0001V14.4143L16 4.41431L26 14.4143Z" fill="black"/>
</svg>
