<svg width="32" height="32" viewBox="0 0 32 32" fill="none" xmlns="http://www.w3.org/2000/svg">
<path d="M16 16C20.4183 16 24 12.4183 24 8C24 3.58172 20.4183 0 16 0C11.5817 0 8 3.58172 8 8C8 12.4183 11.5817 16 16 16ZM21.3333 8C21.3333 10.9455 18.9455 13.3333 16 13.3333C13.0545 13.3333 10.6667 10.9455 10.6667 8C10.6667 5.05448 13.0545 2.66667 16 2.66667C18.9455 2.66667 21.3333 5.05448 21.3333 8Z" fill="black"/>
<path d="M32 29.3333C32 32 29.3333 32 29.3333 32H2.66667C2.66667 32 0 32 0 29.3333C0 26.6667 2.66667 18.6667 16 18.6667C29.3333 18.6667 32 26.6667 32 29.3333ZM29.3333 29.324C29.3295 28.666 28.9233 26.6945 27.1144 24.8856C25.375 23.1463 22.1043 21.3333 16 21.3333C9.89568 21.3333 6.62494 23.1463 4.88559 24.8856C3.07668 26.6945 2.67047 28.666 2.66667 29.324H29.3333Z" fill="black"/>
</svg>
