<svg width="32" height="32" viewBox="0 0 32 32" fill="none" xmlns="http://www.w3.org/2000/svg">
<path fill-rule="evenodd" clip-rule="evenodd" d="M20.8849 20.8849C21.6659 20.1038 22.9322 20.1038 23.7133 20.8849L31.4142 28.5858C32.1953 29.3668 32.1953 30.6332 31.4142 31.4142C30.6332 32.1953 29.3668 32.1953 28.5858 31.4142L20.8849 23.7133C20.1038 22.9322 20.1038 21.6659 20.8849 20.8849Z" fill="black"/>
<path fill-rule="evenodd" clip-rule="evenodd" d="M13 24C19.0751 24 24 19.0751 24 13C24 6.92487 19.0751 2 13 2C6.92487 2 2 6.92487 2 13C2 19.0751 6.92487 24 13 24ZM26 13C26 20.1797 20.1797 26 13 26C5.8203 26 0 20.1797 0 13C0 5.8203 5.8203 0 13 0C20.1797 0 26 5.8203 26 13Z" fill="black"/>
</svg>
